<?xml version="1.0" encoding="utf-8"?>
<!-- Generator: Adobe Illustrator 21.0.2, SVG Export Plug-In . SVG Version: 6.00 Build 0)  -->
<svg version="1.1" id="Layer_1" xmlns="http://www.w3.org/2000/svg" xmlns:xlink="http://www.w3.org/1999/xlink" x="0px" y="0px"
	 viewBox="0 0 36.9 23.6" style="enable-background:new 0 0 36.9 23.6;" xml:space="preserve">
<style type="text/css">
	.st0{fill:#FFFFFF;}
</style>
<path id="behance" class="st0" d="M24.2,2.3h9.2v2.3h-9.2V2.3z M36.9,16.2H25c0.1,2.9,1.5,4,4.1,4c1.8,0,3.3-0.6,3.6-1.6h3.6
	c-1.3,3.9-3.6,5.1-7.4,5.1c-5.2,0-8.5-3.6-8.5-8.8c0-5,3.4-8.8,8.5-8.8C34.5,6,37.2,11.1,36.9,16.2L36.9,16.2z M25,12.8h7.4
	c-0.4-2.3-1.4-3.3-3.6-3.3c-1.9-0.2-3.6,1.2-3.8,3C25,12.6,25,12.7,25,12.8L25,12.8z M19.2,16.5c0,4.7-4,6.7-8.1,6.7H0V0h10.8
	c4.4,0,7.3,1.6,7.3,5.9c0.1,2.1-1.2,4-3.1,4.8C17.6,11.3,19.4,13.8,19.2,16.5z M9.3,3.9H4.6v5.4h5.1c1.8,0,3.1-0.8,3.1-2.7
	C12.8,4.3,11.1,3.9,9.3,3.9L9.3,3.9z M10.1,12.7H4.6v6.3H10c2,0,3.7-0.6,3.7-3C13.7,13.7,12.2,12.7,10.1,12.7z"/>
</svg>
