<?xml version="1.0" encoding="utf-8"?>
<!-- Generator: Adobe Illustrator 21.0.2, SVG Export Plug-In . SVG Version: 6.00 Build 0)  -->
<svg version="1.1" id="All_glyphs" xmlns="http://www.w3.org/2000/svg" xmlns:xlink="http://www.w3.org/1999/xlink" x="0px" y="0px"
	 viewBox="0 0 92 92" style="enable-background:new 0 0 92 92;" xml:space="preserve">
<style type="text/css">
	.st0{fill:#FFFFFF;}
</style>
<title>dribbble</title>
<path class="st0" d="M43.8,33.1c-4.4-7.8-9.3-15.4-14.6-22.6C18.1,15.7,10.1,25.9,7.6,37.9C19.8,37.8,32,36.2,43.8,33.1z M48.7,46.3
	l1.5-0.5c-1-2.2-2.1-4.5-3.2-6.7C34,42.9,20.4,44.8,6.8,44.7c0,0.4,0,0.8,0,1.2c0,9.7,3.6,19.1,10,26.3l0,0
	C16.8,72.3,27.5,53.2,48.7,46.3z M21.9,77L21.9,77c-0.3-0.2-0.6-0.4-0.9-0.7L21.9,77z M36.6,7.9L36.6,7.9L36.6,7.9z M71.9,16.5
	C62.3,8.1,49.2,4.8,36.7,7.8c5.4,7.3,10.3,14.9,14.7,22.9C66.2,25.2,71.8,16.7,71.9,16.5z M46,92C20.6,92,0,71.4,0,46S20.6,0,46,0
	s46,20.6,46,46S71.4,92,46,92z M52.7,52.4C29.6,60.5,22,76.6,21.9,77c11.2,8.8,26.3,10.8,39.5,5.2C59.5,72,56.7,62,52.9,52.4
	L52.7,52.4z M54.5,36.6c0.9,1.9,1.8,3.8,2.6,5.7c0.3,0.7,0.6,1.3,0.8,2c9.1-1,18.4-0.5,27.4,1.3c-0.1-9-3.2-17.7-8.9-24.6
	C76.3,21.2,70,30.3,54.5,36.6L54.5,36.6z M60.3,50.5c3.4,9.1,5.9,18.5,7.7,28.1c9-6.1,15.1-15.6,16.8-26.4
	C76.8,49.9,68.5,49.3,60.3,50.5z"/>
</svg>
