<svg id="Layer_1" data-name="Layer 1" xmlns="http://www.w3.org/2000/svg" viewBox="0 0 32 38"><defs><style>.cls-1{fill:#fff;}</style></defs><title>logo-vert</title><path class="cls-1" d="M13.14,0h1.34V14.71H10.65V8.17L7.53,11.44H7.11L4,8.17v6.54H.17V0H1.56L7.3,6.37Zm-.46,13.26V3.54h-.29L7.3,8.9l-5-5.36H2v9.72h.21V3.81L7.3,9.22l5.18-5.41v9.45Z"/><path class="cls-1" d="M17.36,7.35c0-9.8,14.53-9.8,14.53,0S17.36,17.16,17.36,7.35Zm12.77,0c0-7.61-11-7.59-11,0S30.12,15,30.12,7.35Zm-10.78,0c0,7.41,10.58,7.27,10.58,0S19.34,0,19.34,7.35Zm8.84,0a3.56,3.56,0,1,1-7.1,0A3.56,3.56,0,1,1,28.18,7.35Z"/><path class="cls-1" d="M.17,24.8c0-9.66,14.33-9.66,14.33,0S.17,34.48.17,24.8Zm12.59,0c0-7.5-10.83-7.48-10.83,0S12.76,32.3,12.76,24.8Zm-10.63,0c0,7.3,10.43,7.16,10.43,0S2.13,17.52,2.13,24.8Zm8.72,0a3.51,3.51,0,1,1-7,0A3.51,3.51,0,1,1,10.85,24.8Z"/><path class="cls-1" d="M23.66,32.1H17.33V17.61h6.33C34.59,17.65,34.59,32.06,23.66,32.1Zm-4.24-1.55h4.2c8.34,0,8.34-11.38,0-11.38h-4.2Zm4.2-11.18h-4V30.32h4C31.66,30.3,31.66,19.41,23.61,19.37Zm-2,1.61h2a3.87,3.87,0,1,1,0,7.74h-2Z"/><path class="cls-1" d="M2,34.11a1.68,1.68,0,0,1,1.77,1.43H2.87A.79.79,0,0,0,2,35a.94.94,0,0,0-.94,1,1,1,0,0,0,.94,1,.8.8,0,0,0,.84-.61h.95A1.68,1.68,0,0,1,2,38a1.92,1.92,0,1,1,0-3.85Z"/><path class="cls-1" d="M7.75,37.78v.14H6.67L6,36.81h-.5v1.11h-1V34.16H6.22A1.34,1.34,0,0,1,7,36.59ZM6.22,35H5.53v.93h.69C6.74,35.95,6.76,35,6.22,35Z"/><path class="cls-1" d="M10.68,35H9.29v.53h1.28v.86H9.29v.66h1.44v.86H8.33V34.16h2.35Z"/><path class="cls-1" d="M13.73,37.45H12.24l-.22.47h-.94v-.14l1.69-3.67h.41l1.7,3.67v.14h-.94ZM13,35.63l-.42,1h.85Z"/><path class="cls-1" d="M14.81,35v-.86h2.8V35h-.92v2.9h-1V35Z"/><path class="cls-1" d="M19.88,37.08v.84H18v-.84h.48V35H18v-.84h1.83V35H19.4v2.08Z"/><path class="cls-1" d="M20.27,36a1.93,1.93,0,1,1,3.86,0A1.93,1.93,0,1,1,20.27,36Zm2.88,0a1,1,0,1,0-1.89,0A.95.95,0,1,0,23.15,36Z"/><path class="cls-1" d="M25.86,36.07v1.85h-1V34.14h.35L27.11,36V34.16h1v3.77h-.34Z"/><path class="cls-1" d="M30.9,36.8c0-.26-.31-.31-.69-.33-.82-.06-1.35-.34-1.37-1.16,0-1.62,2.89-1.62,2.87,0H30.8c0-.5-1-.46-1,0,0,.29.26.34.6.38.75.08,1.48.18,1.48,1.12,0,1.58-3.06,1.62-3,0h.93C29.72,37.25,30.9,37.24,30.9,36.8Z"/></svg>