<svg id="Layer_1" data-name="Layer 1" xmlns="http://www.w3.org/2000/svg" viewBox="0 0 66 22.34"><defs><style>.cls-1{fill:#fff;}</style></defs><title>logo-hor</title><path class="cls-1" d="M13.23.21H14.6v15H10.69V8.55L7.5,11.89H7.08L3.91,8.55v6.67H0V.21H1.41l5.86,6.5Zm-.47,13.53V3.83h-.3L7.27,9.3,2.14,3.83H1.86v9.92h.21V4.11l5.2,5.52,5.28-5.52v9.64Z"/><path class="cls-1" d="M17.49,7.76c0-10.35,15.35-10.35,15.35,0S17.49,18.13,17.49,7.76ZM31,7.76c0-8-11.61-8-11.61,0S31,15.8,31,7.76Zm-11.4,0c0,7.83,11.18,7.68,11.18,0S19.58,0,19.58,7.76Zm9.34,0a3.76,3.76,0,1,1-7.5,0A3.76,3.76,0,1,1,28.93,7.76Z"/><path class="cls-1" d="M34.81,7.76c0-10.35,15.35-10.35,15.35,0S34.81,18.13,34.81,7.76Zm13.49,0c0-8-11.61-8-11.61,0S48.3,15.8,48.3,7.76Zm-11.4,0c0,7.83,11.18,7.68,11.18,0S36.9,0,36.9,7.76Zm9.34,0a3.76,3.76,0,1,1-7.5,0A3.76,3.76,0,1,1,46.24,7.76Z"/><path class="cls-1" d="M58.69,15.22H53V.26h5.64C68.44.3,68.44,15.18,58.69,15.22Zm-3.78-1.6h3.74c7.44,0,7.44-11.76,0-11.76H54.9ZM58.65,2.07H55.1V13.38h3.55C65.83,13.36,65.83,2.12,58.65,2.07ZM56.87,3.74h1.82c4.77,0,4.77,8,0,8H56.87Z"/><path class="cls-1" d="M19.43,18.34a1.73,1.73,0,0,1,1.82,1.47h-1a.81.81,0,0,0-.85-.57,1,1,0,0,0-1,1.08,1,1,0,0,0,1,1.07.82.82,0,0,0,.86-.63h1a1.73,1.73,0,0,1-1.84,1.53,2,2,0,1,1,0-4Z"/><path class="cls-1" d="M25.29,22.12v.14H24.19l-.66-1.14H23v1.14H22V18.39h1.7a1.38,1.38,0,0,1,.82,2.5Zm-1.58-2.84H23v1h.71C24.25,20.23,24.28,19.28,23.72,19.27Z"/><path class="cls-1" d="M28.31,19.27H26.88v.55h1.32v.88H26.88v.68h1.48v.88H25.89V18.39h2.42Z"/><path class="cls-1" d="M31.45,21.77H29.92l-.23.49h-1v-.14l1.74-3.78h.43l1.75,3.78v.14h-1Zm-.77-1.87-.43,1h.87Z"/><path class="cls-1" d="M32.55,19.27v-.89h2.88v.89h-.95v3h-1v-3Z"/><path class="cls-1" d="M37.77,21.39v.87h-2v-.87h.49V19.25h-.45v-.86h1.89v.86h-.45v2.14Z"/><path class="cls-1" d="M38.18,20.33a2,2,0,1,1,4,0A2,2,0,1,1,38.18,20.33Zm3,0a1,1,0,1,0-1.94,0A1,1,0,1,0,41.14,20.33Z"/><path class="cls-1" d="M43.93,20.36v1.9h-1V18.37h.36l2,1.91v-1.9h1v3.88h-.35Z"/><path class="cls-1" d="M49.12,21.1c0-.27-.32-.32-.71-.34-.84-.06-1.39-.35-1.41-1.19,0-1.67,3-1.67,3,0H49c0-.51-1-.47-1.07,0,0,.29.27.35.61.39.77.08,1.52.18,1.52,1.15,0,1.63-3.15,1.67-3.13,0h1C47.9,21.57,49.12,21.56,49.12,21.1Z"/></svg>