<?xml version="1.0" encoding="utf-8"?>
<!-- Generator: Adobe Illustrator 21.0.2, SVG Export Plug-In . SVG Version: 6.00 Build 0)  -->
<svg version="1.1" id="All_glyphs" xmlns="http://www.w3.org/2000/svg" xmlns:xlink="http://www.w3.org/1999/xlink" x="0px" y="0px"
	 viewBox="0 0 92 74.8" style="enable-background:new 0 0 92 74.8;" xml:space="preserve">
<style type="text/css">
	.st0{fill:#FFFFFF;}
</style>
<title>twitter</title>
<path class="st0" d="M92,8.9c-3.4,1.5-7.1,2.5-10.8,3c3.9-2.4,6.9-6.1,8.3-10.4c-3.7,2.2-7.8,3.8-12,4.6c-7.2-7.6-19.1-7.9-26.7-0.8
	c-4.9,4.6-7,11.4-5.5,18C30.1,22.4,16,15.2,6.4,3.5c-5,8.6-2.5,19.7,5.8,25.2c-3-0.1-5.9-0.9-8.5-2.4c0,0.1,0,0.2,0,0.2
	c0,9,6.3,16.7,15.1,18.5c-2.8,0.8-5.7,0.9-8.5,0.3c2.5,7.7,9.5,13,17.6,13.2c-6.7,5.2-14.9,8.1-23.4,8.1c-1.5,0-3-0.1-4.5-0.3
	c8.6,5.5,18.7,8.5,28.9,8.5C63.7,74.8,82.6,46,82.6,21c0-0.8,0-1.6-0.1-2.4C86.3,15.9,89.5,12.6,92,8.9z"/>
</svg>
